<?xml version="1.0" standalone="no"?><!DOCTYPE svg PUBLIC "-//W3C//DTD SVG 1.1//EN" "http://www.w3.org/Graphics/SVG/1.1/DTD/svg11.dtd"><svg t="1540273603248" class="icon" style="" viewBox="0 0 1024 1024" version="1.1" xmlns="http://www.w3.org/2000/svg" p-id="52506" xmlns:xlink="http://www.w3.org/1999/xlink" width="128" height="128"><defs><style type="text/css"></style></defs><path d="M280.832 718.336C144.896 686.336 42.666667 548.821333 42.666667 384c0-188.501333 133.717333-341.333333 298.666666-341.333333s298.666667 152.832 298.666667 341.333333c0 164.821333-102.229333 302.378667-238.165333 334.336L426.666667 768H349.098667c-12.8 44.586667-9.514667 74.752 7.338666 91.562667 40.448 40.448 20.821333 89.514667-44.970666 138.837333a21.333333 21.333333 0 0 1-25.6-34.133333c48-36.010667 56.832-58.069333 40.362666-74.496-27.733333-27.733333-34.090667-68.693333-21.205333-121.770667H256l24.832-49.664z m298.709333 0.341333C668.373333 640.512 725.333333 519.637333 725.333333 384c0-59.904-11.093333-116.906667-31.146666-168.618667A238.933333 238.933333 0 0 1 725.333333 213.333333c141.397333 0 256 124.16 256 277.333334 0 130.730667-83.498667 240.341333-195.84 269.653333L810.666667 810.666667h-74.666667c0 10.965333 2.816 21.888 8.405333 33.109333 20.053333 40.106667 0.64 78.933333-49.92 112.64a21.333333 21.333333 0 1 1-23.637333-35.498667c34.773333-23.168 43.818667-41.258667 35.413333-58.026666A115.968 115.968 0 0 1 693.333333 810.666667H640l25.173333-50.346667a245.76 245.76 0 0 1-85.632-41.642667z" p-id="52507"></path></svg>