<?xml version="1.0" standalone="no"?><!DOCTYPE svg PUBLIC "-//W3C//DTD SVG 1.1//EN" "http://www.w3.org/Graphics/SVG/1.1/DTD/svg11.dtd"><svg t="1540272489129" class="icon" style="" viewBox="0 0 1024 1024" version="1.1" xmlns="http://www.w3.org/2000/svg" p-id="14120" xmlns:xlink="http://www.w3.org/1999/xlink" width="32" height="32"><defs><style type="text/css"></style></defs><path d="M688.128 496.128l-61.952 59.904c-6.656 6.144-9.216 15.36-7.68 24.064l16.384 95.232c1.024 5.12 5.632 8.704 10.752 8.704h2.048c5.632-1.024 9.728-6.656 8.704-12.288l-16.384-95.232c-0.512-2.048 0.512-3.584 1.536-5.12l61.952-59.904c4.096-4.096 4.096-10.752 0-15.36s-11.264-4.096-15.36 0z" p-id="14121"></path><path d="M512 0C229.376 0 0 228.864 0 512c0 282.624 229.376 512 512 512s512-229.376 512-512C1024 228.864 794.624 0 512 0z m294.912 492.032l-101.376 98.816c-4.608 4.096-6.144 10.24-5.12 16.384l24.064 139.264c2.56 15.36-1.536 31.232-11.776 43.008-10.24 12.288-25.088 18.944-40.96 18.944-8.704 0-16.896-2.048-25.088-6.144l-125.44-65.536c-5.12-2.56-11.776-2.56-17.408 0l-125.44 65.536c-7.68 4.096-16.384 6.144-25.088 6.144-15.872 0-30.72-7.168-40.96-18.944-10.24-11.776-14.336-27.648-11.776-43.008l24.064-139.264c1.024-6.144-1.024-12.288-5.12-16.384l-102.4-98.304c-14.848-14.336-19.968-35.328-13.312-54.784 6.144-19.456 23.04-33.28 43.008-36.352l140.288-20.48c6.144-1.024 11.264-4.608 13.824-10.24l62.976-126.464C473.088 226.304 491.52 215.04 512 215.04s38.912 11.264 48.128 29.696l62.976 126.464c2.56 5.632 7.68 9.216 13.824 10.24l140.288 20.48c20.48 3.072 36.864 16.896 43.008 36.352 6.144 18.944 1.024 39.936-13.312 53.76z" p-id="14122"></path></svg>